<?xml version="1.0" encoding="UTF-8"?>
<svg preserveAspectRatio="none" id="_图层_2" data-name="图层 2" xmlns="http://www.w3.org/2000/svg" xmlns:xlink="http://www.w3.org/1999/xlink" viewBox="0 0 18.7 214.15">
  <defs>
    <style>
      .cls-1 {
        fill: none;
      }

      .cls-2 {
        fill: #7c7c7c;
      }

      .cls-3 {
        fill: #e2e2e2;
      }

      .cls-4 {
        fill: #c6c6c6;
      }

      .cls-5 {
        fill: #fff;
      }

      .cls-6 {
        clip-path: url(#clippath);
      }
    </style>
    <clipPath id="clippath">
      <rect class="cls-1" width="18.7" height="214.15"/>
    </clipPath>
  </defs>
  <g id="Layer_1" data-name="Layer 1">
    <g class="cls-6">
      <g>
        <path class="cls-2" d="M656.1,86.74c7.25-.18,14.51-.29,21.77-.2.09,13.92.41,27.84.06,41.76-7.3.15-14.59-.12-21.87.19-.02,7.41-.03,14.83-.08,22.25-7.26.18-14.51.08-21.76.13-.19,7.12-.02,14.25-.2,21.37-7.36.34-14.74-.42-22.06.35-.81,7.17-.08,14.41-.36,21.61-14.12.31-28.26-.79-42.37.17.21,6.53.22,13.08.07,19.62-117.86.25-235.72-.01-353.59.07-152,.03-304-.02-456,.02-7.58-.02-15.17.29-22.74-.29.21-6.55.28-13.1.13-19.65-14.56-.27-29.12-.05-43.68-.01-.26-7.24-.08-14.48-.07-21.72-7.31-.23-14.62.04-21.93-.05-.25-7.08-.23-14.16-.06-21.24-7.31-.59-14.66-.12-21.98-.43-.13-7.46-.42-14.94.24-22.38,7.09.03,14.18,0,21.28.07.15,7.38.08,14.76-.09,22.14,7.58.22,15.16.21,22.75.07.01,7.01-.06,14.03-.18,21.05,14.66,1.12,29.37-.23,44.04.6-.08,7.08-.08,14.17.08,21.25,49.07.38,98.14.04,147.21.18,180.67-.03,361.33,0,542-.02,47.64-.09,95.29.21,142.93-.13-.1-7.12-.18-14.24-.14-21.36,13.98-.38,27.96-.06,41.94-.1.12-7.16.22-14.32.35-21.48,7.4.13,14.81.19,22.21.01.05-7.39.04-14.77-.04-22.15,7.29-.13,14.58-.12,21.88-.12.44-13.86.03-27.72.26-41.58Z"/>
        <path class="cls-3" d="M-372.2.18c7.26-.28,14.54-.25,21.81,0,.11,14.11-.28,28.23.16,42.34,7.22.19,14.44.21,21.66.09-.05,7.32-.03,14.63.11,21.95,7.32.17,14.64.18,21.96.05.05,7.21.1,14.43.16,21.65,14.66-.03,29.33.05,43.99.08-.06,6.9-.1,13.81,0,20.71,277.22-.18,554.44.07,831.67-.12.03-6.87.08-13.73.18-20.6,13.97-.16,27.94.27,41.9-.23.23-7.16.32-14.32.43-21.49,7.27.14,14.55.12,21.83-.07.08-7.13.14-14.25.22-21.38,7.28-.31,14.58-.33,21.86.08.3,7.27.3,14.54,0,21.81-7.33-.12-14.65-.1-21.97.06-.08,7.07-.03,14.14-.07,21.21-7.33.05-14.66-.04-21.98.03-.05,6.98.01,13.96-.06,20.94-14.03.08-28.05.01-42.07.06-.15,6.96-.19,13.93-.14,20.9-143.92.3-287.83-.02-431.74.16-133.59-.21-267.17.05-400.75-.14.12-6.97.11-13.93-.1-20.9-14.46-.11-28.92.03-43.38-.05-.01-7.01-.06-14.02-.45-21.02-7.35.04-14.7.07-22.05-.06.12-7.05.13-14.09-.08-21.13-7.06-.21-14.13-.22-21.19-.08-.2-7.22-.22-14.43-.18-21.65-7.2-.1-14.4-.02-21.6-.05-.03-14.38.37-28.77-.13-43.15Z"/>
        <path class="cls-5" d="M-150.5-234.43c61.4.05,122.81-.06,184.21.04,21.38-.39,42.78.58,64.14-.48.43,0,1.3,0,1.73.02,3.71.15,7.42.45,11.14.52,152.94-.26,305.89.04,458.83-.15l.02.92c.18,6.96.06,13.92.02,20.88,7.01-.1,14.04-.22,21.06-.12.02,7.37.03,14.74.07,22.1,6.94,0,13.88,0,20.83.18.15,7.22.16,14.43.12,21.65,7.39-.12,14.79-.11,22.18.11.19,7,.16,14,.06,21,7.45.12,14.91.05,22.37.26.01.55.02,1.63.03,2.17-.31,5.2-.4,10.41-.5,15.61l-.03.97c-.03,14.61-.2,29.21.05,43.82,7.44-.06,14.88-.01,22.31.42-.19,28.25.02,56.5-.12,84.75-7.43-.08-14.86-.03-22.28.11-.05,14.29-.02,28.59,0,42.89-7.28-.41-14.58-.39-21.86-.08-.08,7.13-.14,14.25-.22,21.38-7.28.19-14.56.21-21.83.07-.11,7.17-.2,14.33-.43,21.49-13.96.5-27.93.07-41.9.23-.1,6.87-.15,13.73-.18,20.6-277.23.19-554.45-.06-831.67.12-.1-6.9-.06-13.81,0-20.71-14.66-.03-29.33-.11-43.99-.08-.06-7.22-.11-14.44-.16-21.65-7.32.13-14.64.12-21.96-.05-.14-7.32-.16-14.63-.11-21.95-7.22.12-14.44.1-21.66-.09-.44-14.11-.05-28.23-.16-42.34-7.27-.25-14.55-.28-21.81,0-.04-.66-.12-1.99-.16-2.65.28-14.07.39-28.13.23-42.2-.15-22.67.37-45.33.09-68-.06-5.42.06-10.85.43-16.26,7.04-.02,14.08-.01,21.12.09-.13-13.36-.16-26.72.06-40.08,7.32-.22,14.65-.2,21.97-.02,7.27.14,14.55.03,21.82-.18-.14-7.11-.24-14.23-.35-21.34,7.31-.26,14.64-.24,21.96-.22.51-7.35.6-14.73.75-22.1,6.98-.25,13.99-.33,20.94.42,4.01.4,8.03.66,12.06.68,33.38-.14,66.76-.31,100.15-.21.16-7.52.17-15.03.63-22.54Z"/>
        <path class="cls-4" d="M-372.07,43.33c7.2.03,14.4-.05,21.6.05-.04,7.22-.02,14.43.18,21.65,7.06-.14,14.13-.13,21.19.08.21,7.04.2,14.08.08,21.13,7.35.13,14.7.1,22.05.06.39,7,.44,14.01.45,21.02,14.46.08,28.92-.06,43.38.05.21,6.97.22,13.93.1,20.9,133.58.19,267.16-.07,400.75.14,143.91-.18,287.82.14,431.74-.16-.05-6.97-.01-13.94.14-20.9,14.02-.05,28.04.02,42.07-.06.07-6.98,0-13.96.06-20.94,7.32-.07,14.65.02,21.98-.03.04-7.07-.01-14.14.07-21.21,7.32-.16,14.64-.18,21.97-.06.3-7.27.3-14.54,0-21.81,7.34.14,14.69.07,22.04.09.03,14.4.43,28.81.09,43.21-7.26-.09-14.52.02-21.77.2-.23,13.86.18,27.72-.26,41.58-7.3,0-14.59-.01-21.88.12.08,7.38.09,14.76.04,22.15-7.4.18-14.81.12-22.21-.01-.13,7.16-.23,14.32-.35,21.48-13.98.04-27.96-.28-41.94.1-.04,7.12.04,14.24.14,21.36-47.64.34-95.29.04-142.93.13-180.67.02-361.33,0-542,.02-49.07-.14-98.14.2-147.21-.18-.16-7.08-.16-14.17-.08-21.25-14.67-.83-29.38.52-44.04-.6.12-7.02.19-14.04.18-21.05-7.59.14-15.17.15-22.75-.07.17-7.38.24-14.76.09-22.14-7.1-.07-14.19-.04-21.28-.07h-.78c1.13-13.89.32-27.83.59-41.75-7.16-.11-14.32-.17-21.48-.13.18-14.36.11-28.73-.02-43.1Z"/>
      </g>
    </g>
  </g>
</svg>