<?xml version="1.0" encoding="UTF-8"?>
<svg xmlns="http://www.w3.org/2000/svg" version="1.1" viewBox="0 0 416 512">
  <!-- Generator: Adobe Illustrator 29.0.1, SVG Export Plug-In . SVG Version: 2.1.0 Build 192)  -->
  <defs>
    <style>
      .st0 {
        fill: #c4242e;
      }

      .st1 {
        fill: #002e7d;
      }

      .st2 {
        fill: #b72b2e;
      }

      .st3 {
        fill: #872a09;
      }

      .st4 {
        fill: #00315c;
      }

      .st5 {
        fill: #003162;
      }

      .st6 {
        fill: #e0241b;
      }

      .st7 {
        fill: #8e2706;
      }

      .st8 {
        fill: #8e260d;
      }

      .st9 {
        fill: #8a280f;
      }

      .st10 {
        fill: #c22433;
      }

      .st11 {
        fill: #c32830;
      }

      .st12 {
        fill: #e48998;
      }

      .st13 {
        fill: #00316d;
      }

      .st14 {
        fill: #c2252c;
      }

      .st15 {
        fill: #8a280d;
      }

      .st16 {
        fill: #be272c;
      }

      .st17 {
        fill: #062b72;
      }

      .st18 {
        fill: #013461;
      }

      .st19 {
        fill: #b92b2a;
      }

      .st20 {
        fill: #8c270b;
      }

      .st21 {
        fill: #003161;
      }

      .st22 {
        fill: #c02630;
      }

      .st23 {
        fill: #e91d26;
      }

      .st24 {
        fill: #812c0d;
      }

      .st25 {
        fill: #c1262c;
      }

      .st26 {
        fill: #003262;
      }

      .st27 {
        fill: #ed1d1d;
      }

      .st28 {
        fill: #00345a;
      }

      .st29 {
        fill: #822a12;
      }

      .st30 {
        fill: #c0272a;
      }

      .st31 {
        fill: #c6d0da;
      }

      .st32 {
        fill: #c2262a;
      }

      .st33 {
        fill: #f11a21;
      }

      .st34 {
        fill: #b03023;
      }

      .st35 {
        fill: #842b0b;
      }

      .st36 {
        fill: #c0272c;
      }

      .st37 {
        fill: #86280c;
      }

      .st38 {
        fill: #8f2609;
      }

      .st39 {
        fill: #88290d;
      }

      .st40 {
        fill: #8d2710;
      }

      .st41 {
        fill: #012f6a;
      }

      .st42 {
        fill: #912602;
      }

      .st43 {
        fill: #8e2609;
      }

      .st44 {
        fill: #003358;
      }

      .st45 {
        fill: #062d64;
      }

      .st46 {
        fill: #bd2a23;
      }

      .st47 {
        fill: #f41824;
      }

      .st48 {
        fill: #8c231f;
      }

      .st49 {
        fill: #ea1821;
      }

      .st50 {
        fill: #172661;
      }

      .st51 {
        fill: #9d1e0b;
      }

      .st52 {
        fill: #872c00;
      }

      .st53 {
        fill: #022f6a;
      }

      .st54 {
        fill: #c5242c;
      }

      .st55 {
        fill: #ee1b21;
      }

      .st56 {
        fill: #87290d;
      }

      .st57 {
        fill: #ba292c;
      }

      .st58 {
        fill: #df8d91;
      }

      .st59 {
        fill: #c0262e;
      }

      .st60 {
        fill: #852a0d;
      }

      .st61 {
        fill: #8e2416;
      }

      .st62 {
        fill: #f01b21;
      }

      .st63 {
        fill: #8b2809;
      }

      .st64 {
        fill: #93230d;
      }

      .st65 {
        fill: #88290b;
      }

      .st66 {
        fill: #eb1c24;
      }

      .st67 {
        fill: #8c2514;
      }

      .st68 {
        fill: #822c09;
      }

      .st69 {
        fill: #ea1d22;
      }

      .st70 {
        fill: #8c280e;
      }

      .st71 {
        fill: #8e260b;
      }

      .st72 {
        fill: #ee1832;
      }

      .st73 {
        fill: #8e240a;
      }

      .st74 {
        fill: #00336f;
      }

      .st75 {
        fill: #bb2830;
      }

      .st76 {
        fill: #7d3004;
      }

      .st77 {
        fill: #062d68;
      }

      .st78 {
        fill: #c7232c;
      }

      .st79 {
        fill: #cc2328;
      }

      .st80 {
        fill: #8c2806;
      }

      .st81 {
        fill: #9a2200;
      }

      .st82 {
        fill: #b72a32;
      }

      .st83 {
        fill: #f21826;
      }

      .st84 {
        fill: #c4252a;
      }

      .st85 {
        fill: #c1282d;
      }

      .st86 {
        fill: #e58998;
      }

      .st87 {
        fill: #bb292a;
      }

      .st88 {
        fill: #87290f;
      }

      .st89 {
        fill: #bd282e;
      }

      .st90 {
        fill: #003264;
      }

      .st91 {
        fill: #ea1e1f;
      }

      .st92 {
        fill: #003166;
      }

      .st93 {
        fill: #852a0b;
      }

      .st94 {
        fill: #872a0b;
      }

      .st95 {
        fill: #8c2709;
      }

      .st96 {
        fill: #812d0b;
      }

      .st97 {
        fill: #ed1c21;
      }

      .st98 {
        fill: #003564;
      }

      .st99 {
        fill: #062f5b;
      }

      .st100 {
        fill: #8f250f;
      }

      .st101 {
        fill: #bb292c;
      }

      .st102 {
        fill: #8b270f;
      }

      .st103 {
        fill: #c4242c;
      }

      .st104 {
        fill: #8a280b;
      }

      .st105 {
        fill: #f01a24;
      }

      .st106 {
        fill: #ee1a26;
      }

      .st107 {
        fill: #ee1b24;
      }

      .st108 {
        fill: #8b270d;
      }

      .st109 {
        fill: #c22723;
      }

      .st110 {
        fill: #003261;
      }

      .st111 {
        fill: #8a2710;
      }

      .st112 {
        fill: #db8f91;
      }

      .st113 {
        fill: #89270c;
      }
    </style>
  </defs>
  <g id="_图层_1" data-name="图层_1" shape-rendering="crispEdges">
    <rect class="st10" x="160" width="16" height="16"/>
    <rect class="st39" x="176" width="16" height="16"/>
    <rect class="st47" x="192" width="16" height="16"/>
    <rect class="st66" x="208" width="96" height="16"/>
    <rect class="st70" x="160" y="16" width="16" height="16"/>
    <rect class="st108" x="176" y="16" width="16" height="16"/>
    <rect class="st47" x="192" y="16" width="16" height="16"/>
    <rect class="st66" x="208" y="16" width="112" height="16"/>
    <rect class="st75" x="128" y="32" width="16" height="16"/>
    <rect class="st95" x="144" y="32" width="16" height="16"/>
    <rect class="st108" x="160" y="32" width="32" height="16"/>
    <rect class="st36" x="192" y="32" width="16" height="16"/>
    <rect class="st79" x="208" y="32" width="16" height="16"/>
    <rect class="st66" x="224" y="32" width="128" height="16"/>
    <rect class="st46" x="112" y="48" width="16" height="16"/>
    <rect class="st75" x="128" y="48" width="16" height="16"/>
    <rect class="st20" x="144" y="48" width="16" height="16"/>
    <rect class="st36" x="160" y="48" width="48" height="16"/>
    <rect class="st106" x="208" y="48" width="16" height="16"/>
    <rect class="st66" x="224" y="48" width="144" height="16"/>
    <rect class="st109" x="112" y="64" width="16" height="16"/>
    <rect class="st7" x="128" y="64" width="16" height="16"/>
    <rect class="st37" x="144" y="64" width="16" height="16"/>
    <rect class="st36" x="160" y="64" width="48" height="16"/>
    <rect class="st106" x="208" y="64" width="16" height="16"/>
    <rect class="st66" x="224" y="64" width="64" height="16"/>
    <rect class="st86" x="288" y="64" width="16" height="16"/>
    <rect class="st58" x="304" y="64" width="32" height="16"/>
    <rect class="st66" x="336" y="64" width="32" height="16"/>
    <rect class="st6" x="368" y="64" width="16" height="16"/>
    <rect class="st87" x="112" y="80" width="16" height="16"/>
    <rect class="st98" x="128" y="80" width="16" height="16"/>
    <rect class="st38" x="144" y="80" width="16" height="16"/>
    <rect class="st36" x="160" y="80" width="48" height="16"/>
    <rect class="st106" x="208" y="80" width="16" height="16"/>
    <rect class="st66" x="224" y="80" width="64" height="16"/>
    <rect class="st12" x="288" y="80" width="16" height="16"/>
    <rect class="st112" x="304" y="80" width="32" height="16"/>
    <rect class="st66" x="336" y="80" width="48" height="16"/>
    <rect class="st24" x="32" y="96" width="16" height="16"/>
    <rect class="st107" x="48" y="96" width="16" height="16"/>
    <rect class="st33" x="64" y="96" width="16" height="16"/>
    <rect class="st87" x="112" y="96" width="16" height="16"/>
    <rect class="st98" x="128" y="96" width="16" height="16"/>
    <rect class="st38" x="144" y="96" width="16" height="16"/>
    <rect class="st36" x="160" y="96" width="64" height="16"/>
    <rect class="st66" x="224" y="96" width="64" height="16"/>
    <rect class="st12" x="288" y="96" width="16" height="16"/>
    <rect class="st112" x="304" y="96" width="32" height="16"/>
    <rect class="st66" x="336" y="96" width="64" height="16"/>
    <rect class="st15" y="112" width="32" height="16"/>
    <rect class="st39" x="32" y="112" width="16" height="16"/>
    <rect class="st35" x="48" y="112" width="16" height="16"/>
    <rect class="st66" x="64" y="112" width="32" height="16"/>
    <rect class="st25" x="96" y="112" width="16" height="16"/>
    <rect class="st87" x="112" y="112" width="16" height="16"/>
    <rect class="st21" x="128" y="112" width="16" height="16"/>
    <rect class="st38" x="144" y="112" width="16" height="16"/>
    <rect class="st36" x="160" y="112" width="80" height="16"/>
    <rect class="st66" x="240" y="112" width="160" height="16"/>
    <rect class="st15" y="128" width="32" height="16"/>
    <rect class="st88" x="32" y="128" width="16" height="16"/>
    <rect class="st25" x="48" y="128" width="16" height="16"/>
    <rect class="st66" x="64" y="128" width="48" height="16"/>
    <rect class="st110" x="112" y="128" width="16" height="16"/>
    <rect class="st21" x="128" y="128" width="16" height="16"/>
    <rect class="st38" x="144" y="128" width="16" height="16"/>
    <rect class="st36" x="160" y="128" width="96" height="16"/>
    <rect class="st66" x="256" y="128" width="112" height="16"/>
    <rect class="st17" x="368" y="128" width="16" height="16"/>
    <rect class="st74" x="384" y="128" width="16" height="16"/>
    <rect class="st49" x="400" y="128" width="16" height="16"/>
    <rect class="st15" y="144" width="32" height="16"/>
    <rect class="st39" x="32" y="144" width="16" height="16"/>
    <rect class="st14" x="48" y="144" width="16" height="16"/>
    <rect class="st66" x="64" y="144" width="48" height="16"/>
    <rect class="st62" x="112" y="144" width="16" height="16"/>
    <rect class="st18" x="128" y="144" width="16" height="16"/>
    <rect class="st38" x="144" y="144" width="16" height="16"/>
    <rect class="st108" x="160" y="144" width="16" height="16"/>
    <rect class="st36" x="176" y="144" width="80" height="16"/>
    <rect class="st87" x="256" y="144" width="16" height="16"/>
    <rect class="st107" x="272" y="144" width="16" height="16"/>
    <rect class="st105" x="288" y="144" width="16" height="16"/>
    <rect class="st66" x="304" y="144" width="48" height="16"/>
    <rect class="st51" x="352" y="144" width="16" height="16"/>
    <rect class="st28" x="368" y="144" width="16" height="16"/>
    <rect class="st72" x="384" y="144" width="16" height="16"/>
    <rect class="st91" x="400" y="144" width="16" height="16"/>
    <rect class="st15" y="160" width="32" height="16"/>
    <rect class="st39" x="32" y="160" width="16" height="16"/>
    <rect class="st11" x="48" y="160" width="16" height="16"/>
    <rect class="st66" x="64" y="160" width="48" height="16"/>
    <rect class="st62" x="112" y="160" width="16" height="16"/>
    <rect class="st52" x="128" y="160" width="16" height="16"/>
    <rect class="st29" x="144" y="160" width="16" height="16"/>
    <rect class="st43" x="160" y="160" width="16" height="16"/>
    <rect class="st103" x="176" y="160" width="16" height="16"/>
    <rect class="st36" x="192" y="160" width="96" height="16"/>
    <rect class="st101" x="288" y="160" width="16" height="16"/>
    <rect class="st23" x="304" y="160" width="48" height="16"/>
    <rect class="st64" x="352" y="160" width="16" height="16"/>
    <rect class="st40" x="368" y="160" width="16" height="16"/>
    <rect class="st72" x="384" y="160" width="16" height="16"/>
    <rect class="st91" x="400" y="160" width="16" height="16"/>
    <rect class="st15" y="176" width="32" height="16"/>
    <rect class="st56" x="32" y="176" width="16" height="16"/>
    <rect class="st25" x="48" y="176" width="16" height="16"/>
    <rect class="st89" x="64" y="176" width="16" height="16"/>
    <rect class="st66" x="80" y="176" width="32" height="16"/>
    <rect class="st35" x="112" y="176" width="16" height="16"/>
    <rect class="st48" x="128" y="176" width="16" height="16"/>
    <rect class="st41" x="144" y="176" width="16" height="16"/>
    <rect class="st42" x="160" y="176" width="16" height="16"/>
    <rect class="st108" x="176" y="176" width="16" height="16"/>
    <rect class="st14" x="192" y="176" width="16" height="16"/>
    <rect class="st36" x="208" y="176" width="80" height="16"/>
    <rect class="st16" x="288" y="176" width="16" height="16"/>
    <rect class="st14" x="304" y="176" width="48" height="16"/>
    <rect class="st111" x="352" y="176" width="16" height="16"/>
    <rect class="st13" x="368" y="176" width="16" height="16"/>
    <rect class="st44" x="384" y="176" width="16" height="16"/>
    <rect class="st49" x="400" y="176" width="16" height="16"/>
    <rect class="st15" x="32" y="192" width="32" height="16"/>
    <rect class="st89" x="64" y="192" width="16" height="16"/>
    <rect class="st66" x="80" y="192" width="64" height="16"/>
    <rect class="st39" x="144" y="192" width="16" height="16"/>
    <rect class="st53" x="160" y="192" width="16" height="16"/>
    <rect class="st71" x="176" y="192" width="16" height="16"/>
    <rect class="st100" x="192" y="192" width="160" height="16"/>
    <rect class="st50" x="352" y="192" width="16" height="16"/>
    <rect class="st34" x="368" y="192" width="16" height="16"/>
    <rect class="st27" x="384" y="192" width="16" height="16"/>
    <rect class="st15" x="32" y="208" width="32" height="16"/>
    <rect class="st57" x="64" y="208" width="16" height="16"/>
    <rect class="st55" x="80" y="208" width="16" height="16"/>
    <rect class="st66" x="96" y="208" width="48" height="16"/>
    <rect class="st39" x="144" y="208" width="16" height="16"/>
    <rect class="st96" x="160" y="208" width="16" height="16"/>
    <rect class="st81" x="176" y="208" width="16" height="16"/>
    <rect class="st65" x="192" y="208" width="160" height="16"/>
    <rect class="st1" x="352" y="208" width="16" height="16"/>
    <rect class="st78" x="368" y="208" width="16" height="16"/>
    <rect class="st60" x="48" y="224" width="16" height="16"/>
    <rect class="st22" x="64" y="224" width="16" height="16"/>
    <rect class="st0" x="80" y="224" width="16" height="16"/>
    <rect class="st19" x="96" y="224" width="16" height="16"/>
    <rect class="st66" x="112" y="224" width="32" height="16"/>
    <rect class="st93" x="144" y="224" width="32" height="16"/>
    <rect class="st90" x="176" y="224" width="16" height="16"/>
    <rect class="st99" x="192" y="224" width="96" height="16"/>
    <rect class="st45" x="288" y="224" width="16" height="16"/>
    <rect class="st77" x="304" y="224" width="48" height="16"/>
    <rect class="st83" x="352" y="224" width="16" height="16"/>
    <rect class="st78" x="368" y="224" width="16" height="16"/>
    <rect class="st67" x="48" y="240" width="16" height="16"/>
    <rect class="st94" x="64" y="240" width="16" height="16"/>
    <rect class="st25" x="80" y="240" width="16" height="16"/>
    <rect class="st97" x="96" y="240" width="16" height="16"/>
    <rect class="st69" x="112" y="240" width="16" height="16"/>
    <rect class="st66" x="128" y="240" width="48" height="16"/>
    <rect class="st56" x="176" y="240" width="112" height="16"/>
    <rect class="st107" x="288" y="240" width="16" height="16"/>
    <rect class="st66" x="304" y="240" width="64" height="16"/>
    <rect class="st78" x="368" y="240" width="16" height="16"/>
    <rect class="st94" x="64" y="256" width="16" height="16"/>
    <rect class="st30" x="80" y="256" width="32" height="16"/>
    <rect class="st87" x="112" y="256" width="16" height="16"/>
    <rect class="st66" x="128" y="256" width="240" height="16"/>
    <rect class="st78" x="368" y="256" width="16" height="16"/>
    <rect class="st63" x="80" y="272" width="16" height="16"/>
    <rect class="st32" x="96" y="272" width="16" height="16"/>
    <rect class="st36" x="112" y="272" width="32" height="16"/>
    <rect class="st66" x="144" y="272" width="224" height="16"/>
    <rect class="st63" x="80" y="288" width="16" height="16"/>
    <rect class="st65" x="96" y="288" width="16" height="16"/>
    <rect class="st36" x="112" y="288" width="32" height="16"/>
    <rect class="st66" x="144" y="288" width="224" height="16"/>
    <rect class="st63" x="80" y="304" width="16" height="16"/>
    <rect class="st65" x="96" y="304" width="16" height="16"/>
    <rect class="st36" x="112" y="304" width="48" height="16"/>
    <rect class="st66" x="160" y="304" width="192" height="16"/>
    <rect class="st54" x="352" y="304" width="16" height="16"/>
    <rect class="st15" x="80" y="320" width="16" height="16"/>
    <rect class="st39" x="96" y="320" width="16" height="16"/>
    <rect class="st85" x="112" y="320" width="16" height="16"/>
    <rect class="st36" x="128" y="320" width="32" height="16"/>
    <rect class="st66" x="160" y="320" width="160" height="16"/>
    <rect class="st59" x="320" y="320" width="32" height="16"/>
    <rect class="st56" x="112" y="336" width="16" height="16"/>
    <rect class="st36" x="128" y="336" width="32" height="16"/>
    <rect class="st66" x="160" y="336" width="160" height="16"/>
    <rect class="st36" x="320" y="336" width="32" height="16"/>
    <rect class="st15" x="112" y="352" width="32" height="16"/>
    <rect class="st4" x="144" y="352" width="16" height="16"/>
    <rect class="st84" x="160" y="352" width="16" height="16"/>
    <rect class="st101" x="176" y="352" width="112" height="16"/>
    <rect class="st5" x="288" y="352" width="16" height="16"/>
    <rect class="st92" x="304" y="352" width="16" height="16"/>
    <rect class="st36" x="320" y="352" width="32" height="16"/>
    <rect class="st15" x="112" y="368" width="32" height="16"/>
    <rect class="st82" x="144" y="368" width="16" height="16"/>
    <rect class="st26" x="160" y="368" width="128" height="16"/>
    <rect class="st76" x="288" y="368" width="16" height="16"/>
    <rect class="st113" x="304" y="368" width="16" height="16"/>
    <rect class="st2" x="320" y="368" width="16" height="16"/>
    <rect class="st15" x="128" y="384" width="16" height="16"/>
    <rect class="st102" x="144" y="384" width="16" height="16"/>
    <rect class="st68" x="160" y="384" width="16" height="16"/>
    <rect class="st80" x="176" y="384" width="112" height="16"/>
    <rect class="st73" x="288" y="384" width="16" height="16"/>
    <rect class="st15" x="128" y="400" width="32" height="16"/>
    <rect class="st3" x="160" y="400" width="16" height="16"/>
    <rect class="st61" x="176" y="400" width="96" height="16"/>
    <rect class="st25" x="272" y="400" width="16" height="16"/>
    <rect class="st78" x="288" y="400" width="16" height="16"/>
    <rect class="st15" x="128" y="416" width="32" height="16"/>
    <rect class="st31" x="160" y="416" width="112" height="16"/>
    <rect class="st84" x="272" y="416" width="16" height="16"/>
    <rect class="st36" x="288" y="416" width="16" height="16"/>
    <rect class="st15" x="128" y="432" width="32" height="16"/>
    <rect class="st31" x="160" y="432" width="112" height="16"/>
    <rect class="st84" x="272" y="432" width="16" height="16"/>
    <rect class="st36" x="288" y="432" width="32" height="16"/>
    <rect class="st15" x="128" y="448" width="32" height="16"/>
    <rect class="st31" x="160" y="448" width="112" height="16"/>
    <rect class="st84" x="272" y="448" width="16" height="16"/>
    <rect class="st36" x="288" y="448" width="32" height="16"/>
    <rect class="st15" x="128" y="464" width="32" height="16"/>
    <rect class="st31" x="160" y="464" width="112" height="16"/>
    <rect class="st84" x="272" y="464" width="16" height="16"/>
    <rect class="st36" x="288" y="464" width="32" height="16"/>
    <rect class="st15" x="128" y="480" width="32" height="16"/>
    <rect class="st9" x="160" y="480" width="112" height="16"/>
    <rect class="st84" x="272" y="480" width="16" height="16"/>
    <rect class="st36" x="288" y="480" width="32" height="16"/>
    <rect class="st8" x="128" y="496" width="128" height="16"/>
    <rect class="st104" x="256" y="496" width="16" height="16"/>
    <rect class="st101" x="272" y="496" width="16" height="16"/>
    <rect class="st103" x="288" y="496" width="16" height="16"/>
  </g>
</svg>