<?xml version="1.0" encoding="UTF-8"?>
<svg xmlns="http://www.w3.org/2000/svg" version="1.1" viewBox="0 0 224 336">
  <!-- Generator: Adobe Illustrator 29.0.1, SVG Export Plug-In . SVG Version: 2.1.0 Build 192)  -->
  <defs>
    <style>
      .st0 {
        fill: #4b3a5e;
      }

      .st1 {
        fill: #2d1d44;
      }

      .st2 {
        fill: #5e4e73;
      }

      .st3 {
        fill: #4b3b5f;
      }

      .st4 {
        fill: #3c2c53;
      }

      .st5 {
        fill: #604d7b;
      }

      .st6 {
        fill: #23123c;
      }

      .st7 {
        fill: #21201c;
      }

      .st8 {
        fill: #231f20;
      }

      .st9 {
        fill: #23123f;
      }

      .st10 {
        fill: #23123e;
      }

      .st11 {
        fill: #271640;
      }

      .st12 {
        fill: #493b5f;
      }

      .st13 {
        fill: #25123f;
      }

      .st14 {
        fill: #212117;
      }

      .st15 {
        fill: #5e4e75;
      }

      .st16 {
        fill: #3a2a4f;
      }

      .st17 {
        fill: #33224e;
      }

      .st18 {
        fill: #38284d;
      }

      .st19 {
        fill: #24143b;
      }

      .st20 {
        fill: #211d1e;
      }

      .st21 {
        fill: #1f1b1c;
      }

      .st22 {
        fill: #25143e;
      }

      .st23 {
        fill: #25133d;
      }

      .st24 {
        fill: #47375c;
      }

      .st25 {
        fill: #4a3a61;
      }

      .st26 {
        fill: #262022;
      }

      .st27 {
        fill: #433b50;
      }

      .st28 {
        fill: #4b395f;
      }

      .st29 {
        fill: #36264d;
      }

      .st30 {
        fill: #271642;
      }

      .st31 {
        fill: #37274c;
      }

      .st32 {
        fill: #fff;
      }

      .st33 {
        fill: #251440;
      }

      .st34 {
        fill: #4a3a5f;
      }

      .st35 {
        fill: #392950;
      }

      .st36 {
        fill: #4a3a5e;
      }

      .st37 {
        fill: #39294e;
      }

      .st38 {
        fill: #49395e;
      }

      .st39 {
        fill: #493960;
      }

      .st40 {
        fill: #2d1c46;
      }

      .st41 {
        fill: #231d1f;
      }

      .st42 {
        fill: #202020;
      }

      .st43 {
        fill: #251049;
      }

      .st44 {
        fill: #4d3c66;
      }

      .st45 {
        fill: #5d5179;
      }

      .st46 {
        fill: #242128;
      }

      .st47 {
        fill: #211f24;
      }

      .st48 {
        fill: #241e20;
      }

      .st49 {
        fill: #212119;
      }

      .st50 {
        fill: #25133b;
      }

      .st51 {
        fill: #48395a;
      }

      .st52 {
        fill: #3b2b50;
      }

      .st53 {
        fill: #241340;
      }

      .st54 {
        fill: #382753;
      }

      .st55 {
        fill: #3a2852;
      }
    </style>
  </defs>
  <g id="_图层_1" data-name="图层_1" shape-rendering="crispEdges">
    <rect class="st49" x="96" width="16" height="16"/>
    <rect class="st7" x="112" width="16" height="16"/>
    <rect class="st19" x="80" y="16" width="16" height="16"/>
    <rect class="st25" x="96" y="16" width="16" height="16"/>
    <rect class="st36" x="112" y="16" width="16" height="16"/>
    <rect class="st51" x="128" y="16" width="16" height="16"/>
    <rect class="st32" x="144" y="16" width="32" height="16"/>
    <rect class="st21" x="176" y="16" width="16" height="16"/>
    <rect class="st42" x="48" y="32" width="16" height="16"/>
    <rect class="st38" x="64" y="32" width="16" height="16"/>
    <rect class="st37" x="80" y="32" width="48" height="16"/>
    <rect class="st43" x="128" y="32" width="16" height="16"/>
    <rect class="st34" x="144" y="32" width="32" height="16"/>
    <rect class="st29" x="176" y="32" width="16" height="16"/>
    <rect class="st8" x="192" y="32" width="16" height="16"/>
    <rect class="st36" x="48" y="48" width="16" height="16"/>
    <rect class="st37" x="64" y="48" width="16" height="16"/>
    <rect class="st34" x="80" y="48" width="48" height="16"/>
    <rect class="st30" x="128" y="48" width="16" height="16"/>
    <rect class="st34" x="144" y="48" width="48" height="16"/>
    <rect class="st4" x="192" y="48" width="16" height="16"/>
    <rect class="st14" x="16" y="64" width="16" height="16"/>
    <rect class="st39" x="32" y="64" width="16" height="16"/>
    <rect class="st37" x="48" y="64" width="32" height="16"/>
    <rect class="st34" x="80" y="64" width="48" height="16"/>
    <rect class="st25" x="128" y="64" width="16" height="16"/>
    <rect class="st13" x="144" y="64" width="16" height="16"/>
    <rect class="st34" x="160" y="64" width="32" height="16"/>
    <rect class="st40" x="192" y="64" width="16" height="16"/>
    <rect class="st48" x="16" y="80" width="16" height="16"/>
    <rect class="st9" x="32" y="80" width="16" height="16"/>
    <rect class="st31" x="48" y="80" width="16" height="16"/>
    <rect class="st34" x="64" y="80" width="48" height="16"/>
    <rect class="st37" x="112" y="80" width="16" height="16"/>
    <rect class="st34" x="128" y="80" width="16" height="16"/>
    <rect class="st17" x="144" y="80" width="16" height="16"/>
    <rect class="st23" x="160" y="80" width="16" height="16"/>
    <rect class="st12" x="176" y="80" width="16" height="16"/>
    <rect class="st2" x="16" y="96" width="16" height="16"/>
    <rect class="st35" x="32" y="96" width="16" height="16"/>
    <rect class="st37" x="48" y="96" width="16" height="16"/>
    <rect class="st34" x="64" y="96" width="128" height="16"/>
    <rect class="st11" x="16" y="112" width="16" height="16"/>
    <rect class="st35" x="32" y="112" width="16" height="16"/>
    <rect class="st37" x="48" y="112" width="16" height="16"/>
    <rect class="st34" x="64" y="112" width="32" height="16"/>
    <rect class="st25" x="96" y="112" width="16" height="16"/>
    <rect class="st35" x="112" y="112" width="16" height="16"/>
    <rect class="st34" x="128" y="112" width="64" height="16"/>
    <rect class="st5" y="128" width="16" height="16"/>
    <rect class="st36" x="16" y="128" width="16" height="16"/>
    <rect class="st35" x="32" y="128" width="16" height="16"/>
    <rect class="st37" x="48" y="128" width="32" height="16"/>
    <rect class="st34" x="80" y="128" width="16" height="16"/>
    <rect class="st36" x="96" y="128" width="16" height="16"/>
    <rect class="st18" x="112" y="128" width="16" height="16"/>
    <rect class="st37" x="128" y="128" width="16" height="16"/>
    <rect class="st34" x="144" y="128" width="64" height="16"/>
    <rect class="st20" y="144" width="16" height="16"/>
    <rect class="st10" x="16" y="144" width="16" height="16"/>
    <rect class="st35" x="32" y="144" width="16" height="16"/>
    <rect class="st37" x="48" y="144" width="32" height="16"/>
    <rect class="st34" x="80" y="144" width="32" height="16"/>
    <rect class="st33" x="112" y="144" width="16" height="16"/>
    <rect class="st54" x="128" y="144" width="16" height="16"/>
    <rect class="st34" x="144" y="144" width="64" height="16"/>
    <rect class="st41" x="208" y="144" width="16" height="16"/>
    <rect class="st5" y="160" width="16" height="16"/>
    <rect class="st3" x="16" y="160" width="16" height="16"/>
    <rect class="st35" x="32" y="160" width="16" height="16"/>
    <rect class="st37" x="48" y="160" width="48" height="16"/>
    <rect class="st34" x="96" y="160" width="32" height="16"/>
    <rect class="st22" x="128" y="160" width="16" height="16"/>
    <rect class="st36" x="144" y="160" width="16" height="16"/>
    <rect class="st34" x="160" y="160" width="48" height="16"/>
    <rect class="st36" x="208" y="160" width="16" height="16"/>
    <rect class="st50" y="176" width="16" height="16"/>
    <rect class="st34" x="16" y="176" width="16" height="16"/>
    <rect class="st35" x="32" y="176" width="16" height="16"/>
    <rect class="st37" x="48" y="176" width="48" height="16"/>
    <rect class="st34" x="96" y="176" width="32" height="16"/>
    <rect class="st45" x="128" y="176" width="16" height="16"/>
    <rect class="st46" x="144" y="176" width="16" height="16"/>
    <rect class="st27" x="160" y="176" width="16" height="16"/>
    <rect class="st44" x="176" y="176" width="16" height="16"/>
    <rect class="st9" x="192" y="176" width="16" height="16"/>
    <rect class="st34" x="208" y="176" width="16" height="16"/>
    <rect class="st36" x="16" y="192" width="16" height="16"/>
    <rect class="st9" x="32" y="192" width="16" height="16"/>
    <rect class="st37" x="48" y="192" width="64" height="16"/>
    <rect class="st34" x="112" y="192" width="48" height="16"/>
    <rect class="st24" x="160" y="192" width="16" height="16"/>
    <rect class="st20" x="176" y="192" width="32" height="16"/>
    <rect class="st53" x="32" y="208" width="16" height="16"/>
    <rect class="st37" x="48" y="208" width="80" height="16"/>
    <rect class="st34" x="128" y="208" width="32" height="16"/>
    <rect class="st0" x="160" y="208" width="16" height="16"/>
    <rect class="st1" x="48" y="224" width="32" height="16"/>
    <rect class="st35" x="80" y="224" width="16" height="16"/>
    <rect class="st37" x="96" y="224" width="48" height="16"/>
    <rect class="st28" x="144" y="224" width="16" height="16"/>
    <rect class="st37" x="160" y="224" width="16" height="16"/>
    <rect class="st55" x="176" y="224" width="16" height="16"/>
    <rect class="st26" x="32" y="240" width="16" height="16"/>
    <rect class="st16" x="48" y="240" width="16" height="16"/>
    <rect class="st1" x="64" y="240" width="32" height="16"/>
    <rect class="st37" x="96" y="240" width="80" height="16"/>
    <rect class="st55" x="176" y="240" width="16" height="16"/>
    <rect class="st33" x="48" y="256" width="144" height="16"/>
    <rect class="st6" x="48" y="272" width="16" height="16"/>
    <rect class="st4" x="64" y="272" width="64" height="16"/>
    <rect class="st34" x="128" y="272" width="64" height="16"/>
    <rect class="st37" x="48" y="288" width="48" height="16"/>
    <rect class="st33" x="96" y="288" width="16" height="16"/>
    <rect class="st34" x="112" y="288" width="32" height="16"/>
    <rect class="st37" x="144" y="288" width="16" height="16"/>
    <rect class="st15" x="160" y="288" width="32" height="16"/>
    <rect class="st48" x="16" y="304" width="16" height="16"/>
    <rect class="st37" x="32" y="304" width="80" height="16"/>
    <rect class="st34" x="112" y="304" width="32" height="16"/>
    <rect class="st15" x="144" y="304" width="48" height="16"/>
    <rect class="st34" x="192" y="304" width="16" height="16"/>
    <rect class="st47" x="16" y="320" width="16" height="16"/>
    <rect class="st37" x="32" y="320" width="64" height="16"/>
    <rect class="st52" x="96" y="320" width="16" height="16"/>
    <rect class="st34" x="112" y="320" width="32" height="16"/>
    <rect class="st15" x="144" y="320" width="32" height="16"/>
    <rect class="st34" x="176" y="320" width="32" height="16"/>
  </g>
</svg>